<svg width="240" height="102" viewBox="0 0 240 102" fill="none" xmlns="http://www.w3.org/2000/svg">
<rect width="240" height="102" rx="8" fill="#1D2452"/>
<path d="M29.0275 77.3348L29.4224 24.6522C29.4342 23.0722 31.1873 22.1292 32.5122 22.9902L73.3853 49.5529C74.6076 50.3472 74.5968 52.1402 73.3651 52.9198L32.097 79.0398C30.7597 79.8862 29.0156 78.9175 29.0275 77.3348Z" fill="#ADB3C9"/>
<path d="M168.44 58.1405H166.12C165.738 58.1405 165.547 57.9499 165.547 57.5687V41.2054C165.547 40.8242 165.738 40.6336 166.12 40.6336H172.778C174.197 40.6336 175.297 41.0239 176.079 41.8044C176.861 42.5667 177.252 43.6558 177.252 45.0716V47.6854C177.252 49.1012 176.861 50.1993 176.079 50.9798C175.297 51.7422 174.197 52.1234 172.778 52.1234H169.34C169.122 52.1234 169.013 52.2232 169.013 52.4229V57.5687C169.013 57.9499 168.822 58.1405 168.44 58.1405ZM169.313 49.1012H172.205C172.787 49.1012 173.196 48.9832 173.433 48.7472C173.669 48.4931 173.787 48.0847 173.787 47.522V45.235C173.787 44.6541 173.669 44.2457 173.433 44.0097C173.196 43.7556 172.787 43.6286 172.205 43.6286H169.313C169.113 43.6286 169.013 43.7284 169.013 43.9281V48.8017C169.013 49.0013 169.113 49.1012 169.313 49.1012Z" fill="#E61C44"/>
<path d="M182.771 58.1405H180.452C180.07 58.1405 179.879 57.9499 179.879 57.5687V39.5718C179.879 39.1906 180.07 39 180.452 39H182.771C183.153 39 183.344 39.1906 183.344 39.5718V57.5687C183.344 57.9499 183.153 58.1405 182.771 58.1405Z" fill="#E61C44"/>
<path d="M191.368 58.1405H190.713C189.276 58.1405 188.167 57.7593 187.384 56.997C186.602 56.2346 186.211 55.1365 186.211 53.7025V48.6928C186.211 47.2588 186.602 46.1607 187.384 45.3983C188.167 44.636 189.276 44.2548 190.713 44.2548H197.016C197.416 44.2548 197.616 44.4454 197.616 44.8266V57.5687C197.616 57.9499 197.416 58.1405 197.016 58.1405H194.724C194.342 58.1405 194.151 57.9499 194.151 57.5687V56.6703H194.042C193.842 57.1603 193.487 57.5324 192.978 57.7866C192.468 58.0225 191.932 58.1405 191.368 58.1405ZM194.151 53.0763V47.5492C194.151 47.3496 194.042 47.2497 193.824 47.2497H191.259C190.677 47.2497 190.267 47.3768 190.031 47.6309C189.795 47.8669 189.676 48.2753 189.676 48.8561V53.5392C189.676 54.12 189.795 54.5375 190.031 54.7916C190.267 55.0276 190.677 55.1455 191.259 55.1455H192.268C193.523 55.1455 194.151 54.4558 194.151 53.0763Z" fill="#E61C44"/>
<path d="M202.871 62.7419H201.124C200.761 62.7419 200.579 62.5422 200.579 62.1429V60.3187C200.579 59.9193 200.761 59.7197 201.124 59.7197H201.697C202.843 59.7197 203.616 59.5563 204.016 59.2296C204.435 58.921 204.753 58.3129 204.971 57.4054H203.525C203.18 57.4054 202.952 57.2148 202.843 56.8336L199.651 44.8266C199.542 44.4454 199.678 44.2548 200.06 44.2548H202.489C202.852 44.2548 203.08 44.4454 203.171 44.8266L205.517 54.8733H205.626L207.945 44.8266C208.018 44.4454 208.246 44.2548 208.628 44.2548H210.919C211.374 44.2548 211.556 44.4545 211.465 44.8538L208.136 58.1405C207.736 59.6471 207.118 60.7906 206.281 61.5711C205.444 62.3516 204.308 62.7419 202.871 62.7419Z" fill="#E61C44"/>
<path d="M108.427 58.1404H105.535C104.098 58.1404 102.989 57.7593 102.207 56.9969C101.424 56.2346 101.033 55.1364 101.033 53.7025V45.0715C101.033 43.6376 101.424 42.5394 102.207 41.7771C102.989 41.0147 104.098 40.6335 105.535 40.6335H108.427C109.846 40.6335 110.947 41.0238 111.729 41.8043C112.511 42.5667 112.902 43.6557 112.902 45.0715V45.8883C112.902 46.2877 112.711 46.4873 112.329 46.4873H110.01C109.628 46.4873 109.437 46.2877 109.437 45.8883V45.2349C109.437 44.654 109.319 44.2456 109.082 44.0097C108.846 43.7556 108.437 43.6285 107.854 43.6285H106.081C105.517 43.6285 105.108 43.7556 104.853 44.0097C104.617 44.2456 104.498 44.654 104.498 45.2349V53.5391C104.498 54.1199 104.617 54.5374 104.853 54.7915C105.108 55.0275 105.517 55.1455 106.081 55.1455H107.854C108.437 55.1455 108.846 55.0275 109.082 54.7915C109.319 54.5374 109.437 54.1199 109.437 53.5391V51.8238C109.437 51.6241 109.337 51.5243 109.137 51.5243H107.5C107.118 51.5243 106.927 51.3337 106.927 50.9525V49.1011C106.927 48.7199 107.118 48.5293 107.5 48.5293H112.275C112.693 48.5293 112.902 48.7381 112.902 49.1556V53.7025C112.902 55.1183 112.511 56.2164 111.729 56.9969C110.947 57.7593 109.846 58.1404 108.427 58.1404Z" fill="#DDE3F0"/>
<path d="M120.785 58.1404H120.13C118.693 58.1404 117.584 57.7593 116.802 56.9969C116.02 56.2346 115.628 55.1364 115.628 53.7025V48.6927C115.628 47.2588 116.02 46.1606 116.802 45.3983C117.584 44.6359 118.693 44.2547 120.13 44.2547H126.433C126.833 44.2547 127.033 44.4453 127.033 44.8265V57.5687C127.033 57.9498 126.833 58.1404 126.433 58.1404H124.141C123.759 58.1404 123.568 57.9498 123.568 57.5687V56.6702H123.459C123.259 57.1603 122.904 57.5324 122.395 57.7865C121.886 58.0225 121.349 58.1404 120.785 58.1404ZM123.568 53.0762V47.5492C123.568 47.3495 123.459 47.2497 123.241 47.2497H120.676C120.094 47.2497 119.685 47.3767 119.448 47.6309C119.212 47.8668 119.094 48.2752 119.094 48.8561V53.5391C119.094 54.1199 119.212 54.5374 119.448 54.7915C119.685 55.0275 120.094 55.1455 120.676 55.1455H121.686C122.941 55.1455 123.568 54.4557 123.568 53.0762Z" fill="#DDE3F0"/>
<path d="M132.915 58.1404H130.596C130.214 58.1404 130.023 57.9498 130.023 57.5687V44.8265C130.023 44.4453 130.214 44.2547 130.596 44.2547H132.915C133.297 44.2547 133.488 44.4453 133.488 44.8265V45.725H133.597C133.816 45.2893 134.18 44.9354 134.689 44.6631C135.216 44.3909 135.817 44.2547 136.49 44.2547H137.254C138.836 44.2547 139.973 44.8356 140.664 45.9972C141.283 44.8356 142.347 44.2547 143.856 44.2547H144.648C146.048 44.2547 147.103 44.6359 147.813 45.3983C148.54 46.1606 148.904 47.2588 148.904 48.6927V57.5687C148.904 57.9498 148.713 58.1404 148.331 58.1404H146.012C145.63 58.1404 145.439 57.9498 145.439 57.5687V48.8561C145.439 48.2752 145.321 47.8668 145.084 47.6309C144.848 47.3767 144.439 47.2497 143.856 47.2497H143.174C141.919 47.2497 141.292 47.9485 141.292 49.3461V57.5687C141.292 57.9498 141.092 58.1404 140.691 58.1404H138.4C138.018 58.1404 137.827 57.9498 137.827 57.5687V48.8561C137.827 48.2752 137.699 47.8668 137.445 47.6309C137.208 47.3767 136.799 47.2497 136.217 47.2497H135.371C134.116 47.2497 133.488 47.9394 133.488 49.3189V57.5687C133.488 57.9498 133.297 58.1404 132.915 58.1404Z" fill="#DDE3F0"/>
<path d="M162.051 58.1404H156.021C154.584 58.1404 153.475 57.7593 152.693 56.9969C151.91 56.2346 151.519 55.1364 151.519 53.7025V48.6927C151.519 47.2588 151.91 46.1606 152.693 45.3983C153.475 44.6359 154.584 44.2547 156.021 44.2547H158.177C159.614 44.2547 160.723 44.6359 161.505 45.3983C162.288 46.1606 162.679 47.2588 162.679 48.6927V52.1505C162.679 52.5317 162.488 52.7223 162.106 52.7223H155.257C155.039 52.7223 154.93 52.8221 154.93 53.0218V53.6208C154.93 54.1835 155.048 54.5919 155.285 54.846C155.539 55.0819 155.958 55.1999 156.54 55.1999H162.051C162.433 55.1999 162.624 55.3996 162.624 55.7989V57.5959C162.624 57.7956 162.579 57.9408 162.488 58.0315C162.415 58.1041 162.269 58.1404 162.051 58.1404ZM155.257 50.408H158.968C159.168 50.408 159.268 50.3082 159.268 50.1085V48.8016C159.268 48.2208 159.15 47.8124 158.913 47.5764C158.677 47.3404 158.268 47.2225 157.686 47.2225H156.54C155.958 47.2225 155.548 47.3404 155.312 47.5764C155.075 47.8124 154.957 48.2208 154.957 48.8016V50.1085C154.957 50.3082 155.057 50.408 155.257 50.408Z" fill="#DDE3F0"/>
</svg>
